<?xml version="1.0" encoding="UTF-8" standalone="no"?>
<!DOCTYPE svg PUBLIC "-//W3C//DTD SVG 1.1//EN" "http://www.w3.org/Graphics/SVG/1.1/DTD/svg11.dtd">
<svg width="100%" height="100%" viewBox="0 0 60 60" version="1.1" xmlns="http://www.w3.org/2000/svg" xmlns:xlink="http://www.w3.org/1999/xlink" xml:space="preserve" xmlns:serif="http://www.serif.com/" style="fill-rule:evenodd;clip-rule:evenodd;stroke-linejoin:round;stroke-miterlimit:2;">
    <g id="XMLID_156_">
        <path id="XMLID_927_" d="M40.9,39.4C40.4,38.1 39.8,36.9 39.1,35.8C39.3,35.6 39.4,35.3 39.6,35C40.3,33.6 40.7,31.9 40.8,30.2C41.1,30.4 41.6,30.5 42,30.1C43.2,29.1 43.8,26.8 44.2,25.3C44.5,24.2 45,22.5 44.1,21.5C43.6,21 42.9,21.1 42.3,21.5C43.1,17.2 42.6,12.1 40.1,8.5C38.2,5.8 34.8,4.6 31.5,4.4C32,3.7 32.3,2.5 32.2,1.8C32,0.8 30.9,0.4 30,0.4C29,0.4 28.1,1.2 28,2.2C28,2.7 28.1,3.2 28.4,3.6C28.6,3.9 28.8,4.2 29,4.5L28.8,4.5C28.2,4.5 27.6,4.6 27.1,4.7C24.1,5.3 21.1,6.6 19.5,9.4C17.9,12 17.4,15.9 17.7,19.2L17.7,19.5C17.8,20.2 17.9,20.9 18,21.6C17.5,21.3 16.8,21.2 16.3,21.7C15.4,22.6 15.9,24.4 16.2,25.5C16.4,26.1 16.5,26.8 16.8,27.4C17.1,28.2 17.6,29.7 18.4,30.3C18.9,30.6 19.4,30.6 19.7,30.2C19.9,32.1 20.4,34 21.4,35.7C20.6,36.8 20,38.1 19.5,39.4C11.3,42.1 2.4,46.6 1.4,56C1.4,56.3 1.8,56.4 1.9,56.1C3.6,52.8 4,49.6 6.9,47.1C10.5,43.9 15.1,42.5 19.2,40.1C18.1,43.2 17.7,46.7 17.7,49.8C17.7,50.1 18,50.4 18.3,50.3C19.4,50 20.3,49.5 21.4,49.1C23.1,48.4 24.1,48.3 23.6,50.6C23.5,50.9 23.7,51.2 24.1,51.2C25.8,51.3 27.2,51.8 28.6,52.8C28.7,52.9 28.8,52.7 28.8,52.6C27.9,51 26.4,50.5 24.7,50.3C24.9,49.2 25.1,47.8 23.8,47.4C22.5,47 20.2,48.4 18.7,49.1C18.7,44.5 20.1,40.4 21.7,36.1C21.8,36.3 22,36.5 22.1,36.7C21.7,39 21.6,42.6 22.6,44.8C23.2,46.1 24.4,46.8 25.4,47.8C26.9,49.2 28.1,50.8 29.4,52.4C28.5,54.8 28.6,56.5 29,59.1C29,59.3 29.4,59.3 29.5,59.1C29.9,56.9 29.6,55.6 30.2,53.5C30.8,51.2 32.7,49.6 34.5,48.1C36,46.8 37.6,45.7 38,43.7C38.4,41.6 38.5,39.2 38.2,37C38.4,36.8 38.5,36.6 38.7,36.4C40.2,40.5 41.5,44.6 41.6,49.1C40.1,48.4 37.8,47 36.5,47.4C35.2,47.9 35.4,49.2 35.6,50.3C33.9,50.5 32.4,51 31.5,52.6C31.4,52.7 31.6,52.9 31.7,52.8C33.1,51.8 34.4,51.3 36.2,51.2C36.5,51.2 36.7,50.9 36.7,50.6C36.5,49.8 36,48.8 37.1,48.5C37.5,48.4 38.5,49 38.9,49.1C39.9,49.5 40.9,50 42,50.3C42.3,50.4 42.6,50.1 42.6,49.8C42.7,46.7 42.2,43.3 41.2,40.2C45.3,41.8 49.7,43 53.1,46C56.4,48.9 56.7,52.4 58.2,56.2C58.3,56.5 58.8,56.5 58.8,56.1C58.8,46.3 49.3,40.9 40.9,39.4ZM41.7,16.7C41.7,16.7 41.7,16.6 41.7,16.7C41.7,16.6 41.7,16.7 41.7,16.7ZM19.6,29.3C18.8,29.6 18.7,29.1 18.3,28.5C17.8,27.6 17.4,26.6 17.1,25.6C16.7,24.3 15.9,21.4 18.3,22.2C18.4,22.3 18.5,22.3 18.6,22.2C18.9,22.5 19.3,22.2 19.3,21.8C19.2,21.3 19.2,20.6 19,20C19,19.9 19,19.8 18.9,19.7C19,19.7 19.1,19.5 19.1,19.4C19.1,19.2 18.9,18.9 18.7,18.7L18.7,18.6L18.8,18.7C18.9,18.8 19.1,18.8 19.2,18.8C19.3,18.8 19.3,18.7 19.4,18.6C19.4,18.5 19.4,18.3 19.3,18.3C19.1,18.1 18.9,18 18.7,17.8L18.7,17.7C18.9,17.9 19.2,18 19.5,18.1C19.6,18.2 19.7,18 19.6,17.9C19.4,17.6 19.1,17.3 18.9,16.9C19,17 19.1,17 19.1,17.1C19.4,17.3 19.7,17.6 20.1,17.6C20.1,17.6 20.2,17.6 20.1,17.5C20,17.1 19.6,16.9 19.3,16.7C19.1,16.5 18.9,16.2 18.6,15.9L18.6,15.5C18.7,15.7 18.9,15.9 19,16C19.4,16.4 20,17.1 20.6,17.1C20.7,17.1 20.8,17 20.8,16.9C20.7,16.6 20.5,16.5 20.3,16.3C20,16.1 19.8,15.8 19.6,15.6C19.3,15.3 19,14.9 18.7,14.6C18.7,14.5 18.7,14.3 18.8,14.2C19,14.6 19.3,14.9 19.5,15.1C19.9,15.6 20.6,16.5 21.3,16.4C21.4,16.4 21.5,16.3 21.4,16.2C21.4,15.8 21.1,15.7 20.8,15.5C20.5,15.2 20.2,14.9 19.9,14.6C19.5,14.2 19.2,13.6 18.8,13.2C18.8,13.1 18.9,12.9 18.9,12.8C19.3,13.8 20.1,14.6 20.9,15.3C21.3,15.6 21.8,15.1 21.4,14.8C20.5,14 19.8,13 19,12.1C19.1,11.9 19.1,11.7 19.2,11.5C19.3,11.8 19.5,12.1 19.7,12.3C20.1,12.9 20.5,13.5 21,14C21.3,14.3 21.8,13.8 21.5,13.5C21,13 20.6,12.5 20.2,11.9C20,11.5 19.8,11.1 19.5,10.7C19.6,10.5 19.7,10.3 19.8,10.1C19.9,10.5 20.2,10.9 20.4,11.3C20.7,11.9 21.1,12.6 21.7,12.9C21.9,13 22.1,12.8 22.1,12.6C21.9,12 21.4,11.5 21,10.9C20.7,10.4 20.4,9.9 20.1,9.5C20.2,9.4 20.3,9.2 20.4,9.1C20.5,9.5 20.7,9.9 20.9,10.2C21.2,10.9 21.7,11.7 22.4,12.1C22.5,12.2 22.8,12 22.7,11.9C22.5,11.2 22,10.6 21.7,9.9C21.5,9.5 21.3,8.8 21,8.4C21.1,8.3 21.2,8.2 21.3,8.1C21.4,8.6 21.6,9.2 21.8,9.7C22.1,10.4 22.5,11.2 23.1,11.7C23.2,11.8 23.6,11.7 23.5,11.5C23.2,10.8 22.9,10.2 22.6,9.6C22.3,9 22.2,8.3 21.9,7.7C22.1,7.5 22.3,7.3 22.5,7.2C22.3,8.5 23.1,10.1 23.6,11.2C23.8,11.5 24.1,11.5 24.3,11.4C27.8,11.9 31.6,11.6 35.1,11.2C35.3,11.2 35.4,11.2 35.6,11.1C36.3,10.5 36.6,9.2 36.8,8.3C36.9,8.2 37.1,7.5 37,7C37.2,7.1 37.4,7.3 37.7,7.4C37.3,8 37.2,8.8 37,9.4C36.7,10.1 36.3,10.8 36.1,11.6C36.1,11.7 36.1,11.7 36.2,11.7C36.8,11.3 37.3,10.5 37.7,9.9C38,9.4 38.4,8.7 38.5,8C38.6,8.1 38.8,8.3 38.9,8.4C38.6,8.8 38.3,9.5 38.1,9.9C37.8,10.5 37.3,11.1 37.2,11.7C37.2,11.8 37.2,11.8 37.3,11.8C37.9,11.5 38.3,10.8 38.7,10.2C39,9.8 39.3,9.4 39.5,9C39.6,9.1 39.6,9.2 39.7,9.3C39.4,9.8 39.2,10.2 38.9,10.7C38.6,11.2 38,11.6 37.9,12.2C37.9,12.3 38,12.4 38,12.3C38.5,12.1 38.9,11.5 39.3,11.1C39.6,10.7 39.9,10.3 40.1,9.9L40.1,10C39.8,10.6 39.4,11.2 38.9,11.7C38.8,11.8 38.2,12.6 38.5,12.7C39,12.8 39.5,12 39.7,11.7C39.9,11.4 40.2,11.1 40.4,10.8C40.5,10.9 40.5,11 40.6,11.1C40.6,11.2 40.5,11.2 40.5,11.3C40.3,11.6 40,11.8 39.8,12C39.5,12.3 39.3,12.5 39,12.8C38.8,13 38.7,13.1 38.7,13.4C38.7,13.4 38.7,13.5 38.8,13.5C39.1,13.5 39.2,13.4 39.4,13.2C39.7,12.9 40,12.6 40.3,12.3C40.4,12.2 40.7,12 40.8,11.8C40.8,11.9 40.8,11.9 40.9,12C40.6,12.2 40.3,12.6 40,12.9C39.6,13.2 39.2,13.6 38.9,14C38.7,14.2 38.9,14.6 39.2,14.4C39.7,14.1 40,13.8 40.4,13.4C40.6,13.2 40.9,13 41.1,12.8C41.1,12.9 41.2,13 41.2,13.1C40.8,13.3 40.4,13.7 40.1,14C39.7,14.3 39.1,14.7 38.9,15.1L38.9,15.3C39.2,15.5 39.9,14.8 40.2,14.6C40.5,14.4 41,14.1 41.4,13.8L41.4,13.9C41,14.3 40.6,14.6 40.1,15C39.7,15.3 39.2,15.6 39.1,16.1C39.1,16.2 39.2,16.3 39.3,16.3C39.8,16.3 40.2,15.8 40.6,15.5C40.9,15.2 41.3,14.9 41.6,14.6L41.6,14.7C41.2,15 40.9,15.4 40.6,15.7C40.2,16.1 39.8,16.4 39.6,16.9C39.6,17 39.6,17.1 39.7,17.1C40.2,16.9 40.6,16.5 40.9,16.2C41.1,16 41.4,15.8 41.7,15.5L41.7,15.8C41.4,16 41.1,16.2 40.9,16.5C40.6,16.7 40.3,17 40.1,17.3C40,17.5 40.2,17.7 40.4,17.7C40.6,17.7 40.8,17.6 41.1,17.4C40.9,17.6 40.7,17.9 40.7,18.1C40.6,18.4 40.9,18.5 41.1,18.4C41.4,18.2 41.7,18 42,17.8L42,17.9C41.6,18.1 41.2,18.6 41.4,19L41.4,19.2C41.3,19.3 41.4,19.4 41.4,19.5C41.4,20.4 41.5,21.3 41.5,22.2C41.5,22.5 41.8,22.6 42.1,22.5C42.3,22.4 42.2,22.4 42.3,22.4C42.4,22.3 42.4,22.4 42.4,22.3C44.6,21.7 43.8,24.5 43.4,25.8C43.1,26.7 42.8,27.6 42.3,28.4C41.9,29.1 41.8,29.7 41,29.5L41,28.6C41,28.4 40.7,28.3 40.6,28.6C39.9,30.7 39.8,33.4 38.5,35.3C38.4,35.3 38.4,35.4 38.4,35.4C37.4,36.8 35.9,37.9 34.6,38.9C34.7,38.5 34.8,38.1 34.7,37.7C34.7,37.6 34.6,37.6 34.5,37.7C34.3,38.1 34.2,38.6 34,39C33.9,39.1 33.9,39.3 33.8,39.4C34,38.8 34.1,38.3 34,37.7C34,37.6 33.9,37.6 33.9,37.7C33.7,38.2 33.5,38.8 33.3,39.3C33.3,39.3 33.3,39.4 33.2,39.4C33.3,38.8 33.2,38.3 33.1,37.6C33.1,37.3 32.6,37.3 32.6,37.6C32.6,38 32.5,38.4 32.4,38.8C32.4,38.3 32.3,37.9 32.1,37.5C32.1,37.4 32,37.4 31.9,37.5C31.8,37.9 31.7,38.3 31.5,38.7C31.5,38.4 31.4,38.1 31.4,37.9C31.4,37.6 30.9,37.6 30.9,37.9C30.9,38.3 30.9,38.6 30.8,39C30.8,39.2 30.7,39.5 30.7,39.7C30.7,38.9 30.6,38.1 30.5,37.3C30.5,37.1 30.2,37.2 30.1,37.3C30,37.9 29.9,38.5 29.9,39.2L29.9,39.1C29.8,38.6 29.6,38.2 29.6,37.7C29.6,37.5 29.2,37.4 29.2,37.7C29.3,38.2 29.2,38.7 29.1,39.2C29,38.6 28.8,38.1 28.7,37.5C28.7,37.4 28.4,37.4 28.4,37.5L28.4,39.5C28.2,38.9 28,38.3 27.9,37.7C27.8,37.4 27.4,37.5 27.5,37.8C27.6,38.2 27.6,38.6 27.6,39C27.5,38.7 27.4,38.5 27.4,38.2C27.3,37.8 27.2,37.3 26.9,37L26.8,37C26.6,37.4 26.7,37.9 26.7,38.3C26.7,38.5 26.8,38.7 26.8,38.9C26.5,38.5 26.3,38 26.1,37.5C26.1,37.4 25.9,37.4 25.9,37.5C25.9,37.9 26,38.4 26,38.8L25.9,38.8C25.7,38.3 25.4,37.8 25.2,37.2C25.2,37.1 25.1,37.2 25,37.2L25,38.1C24.9,37.9 24.8,37.6 24.7,37.4C24.7,37.3 24.5,37.4 24.6,37.4C24.6,37.5 24.6,37.6 24.7,37.7C24.3,37.4 24,37 23.6,36.7C21.4,34.5 21,31.5 19.9,28.7C19.9,28.6 19.7,28.6 19.7,28.7C19.6,28.9 19.6,29.1 19.6,29.3ZM31.1,49.5C30.6,50.1 30.2,50.7 29.8,51.4C29,49.5 27.5,48.1 26,46.7C27.6,47.2 29.4,47.4 31,47.4C31.9,47.4 32.9,47.3 33.9,47C33,47.8 31.9,48.6 31.1,49.5ZM36.4,44.4C36.3,44.6 36.1,44.9 35.9,45.1C34.2,45.7 32.6,46.2 30.8,46.2C28.6,46.2 26.6,45.5 24.5,44.9C23,42.7 23.2,40 23,37.4C24.5,38.9 26.6,40.7 28.8,40.8C31.6,40.9 33.1,41.1 35.3,39.4C36,38.8 36.8,38.2 37.5,37.6C37.3,39.9 37.5,42.5 36.4,44.4Z" style="fill-rule:nonzero;"/>
        <path id="XMLID_932_" d="M18.9,24.1C18.6,23.5 17.9,22.6 17.3,23.3C17.2,23.4 17.2,23.5 17.3,23.6C17.4,23.8 17.5,23.8 17.7,24C18.1,24.3 18.3,24.7 18.5,25.2C18.5,25.2 18.5,25.3 18.6,25.3C18.3,25.7 18.1,26.6 18.5,27L18.6,27C18.7,26.8 18.7,26.6 18.7,26.4C18.7,26.2 18.8,26.1 18.9,25.9C19,26.1 19.1,26.3 19.1,26.6C19.2,27 19.1,27.4 19.2,27.7C19.2,27.8 19.4,27.8 19.4,27.7C19.5,27.2 19.4,26.7 19.3,26.2C19.2,25.4 19.2,24.8 18.9,24.1Z" style="fill-rule:nonzero;"/>
        <path id="XMLID_933_" d="M41.2,27.5C41.3,27.2 41.3,26.9 41.3,26.6C41.3,26.2 41.4,26 41.6,25.7C41.7,25.8 41.7,26 41.7,26.2C41.7,26.4 41.7,26.6 41.8,26.8L41.9,26.8C42.3,26.4 42.2,25.5 41.8,25.1C41.8,25.1 41.8,25 41.9,25C42.1,24.6 42.3,24.2 42.6,23.9C42.8,23.7 43,23.6 43.1,23.4L43.1,23.1C42.5,22.5 41.7,23.4 41.5,23.9C41.2,24.5 41.3,25.2 41.2,25.8C41.1,26.3 41,26.8 41.1,27.3C41,27.6 41.2,27.6 41.2,27.5Z" style="fill-rule:nonzero;"/>
        <path id="XMLID_934_" d="M31.5,54L31.1,54C30.7,54.1 30.3,54.5 30.4,55C30.4,55.2 30.6,55.5 30.7,55.6C30.8,55.7 30.9,55.7 31,55.8C31.2,55.9 31.4,55.9 31.6,55.8C32.2,55.6 32.5,55 32.2,54.4C32.1,54.2 31.8,54 31.5,54Z" style="fill-rule:nonzero;"/>
        <path id="XMLID_935_" d="M27.6,27.4C27.3,28 26.9,28.7 27.5,29.2C27.9,29.5 28.6,29.6 29,29.8C29.5,30 30,30.1 30.6,30.1C31.2,30.1 31.5,29.8 32,29.5C32.4,29.3 32.7,29.2 32.9,28.9C33.3,28.4 33.3,27.6 32.7,27.2L32.6,27.2C32.5,27.4 32.6,27.7 32.5,28C32.3,28.7 31.7,29.1 31,29.3C30.2,29.6 29.6,29.3 28.9,29C28.7,28.9 28.5,28.9 28.4,28.8C28,28.7 27.7,27.9 27.6,27.4C27.7,27.4 27.6,27.4 27.6,27.4Z" style="fill-rule:nonzero;"/>
        <path id="XMLID_936_" d="M33.8,32.7C33.5,32.6 33.4,32.7 33.2,32.8C32.2,32.8 31.2,33 30.2,33C29,33 27.8,32.9 26.6,33C26.5,33 26.5,33.1 26.6,33.1C27.8,33.5 29,33.4 30.3,33.4C31.3,33.4 32.3,33.4 33.3,33.2C33.5,33.3 33.7,33.3 34,33.3C34,33.2 34.1,32.8 33.8,32.7Z" style="fill-rule:nonzero;"/>
        <path id="XMLID_937_" d="M28.7,35.1C28.7,35.1 28.6,35.1 28.7,35.1C28.5,35.4 28.5,35.6 28.7,35.7C28.8,35.8 28.9,35.7 28.9,35.6C29,35.4 28.9,35.2 28.7,35.1Z" style="fill-rule:nonzero;"/>
        <path id="XMLID_939_" d="M29.5,34.8C29.4,34.9 29.4,35.1 29.4,35.3C29.3,35.1 29.3,35 29.1,34.8C29.1,34.7 28.9,34.8 28.9,34.8C28.8,35.2 28.9,35.7 29.1,36C29.2,36.1 29.4,36.1 29.4,35.9L29.4,35.8C29.4,35.9 29.5,35.9 29.5,36C29.6,36.1 29.7,36.1 29.8,36C30.1,35.6 29.9,35 29.6,34.7C29.6,34.8 29.5,34.8 29.5,34.8Z" style="fill-rule:nonzero;"/>
        <path id="XMLID_940_" d="M31.3,34.9L31.3,34.8C31.3,34.7 31.1,34.7 31,34.8C31,34.9 30.9,35 30.9,35.2C30.8,35 30.8,34.9 30.6,34.8L30.5,34.8C30.4,34.9 30.4,35 30.3,35.1C30.3,35 30.2,34.9 30.2,34.7C30.2,34.5 29.9,34.6 29.9,34.7C29.9,35.2 29.8,35.7 30,36.2C30.1,36.3 30.3,36.4 30.3,36.2C30.4,36 30.4,35.9 30.4,35.7C30.4,35.7 30.4,35.8 30.5,35.8C30.6,35.9 30.7,35.9 30.7,35.8C30.8,35.7 30.8,35.6 30.8,35.5C30.9,35.6 31,35.6 31.1,35.5L31.1,35.4C31.2,35.5 31.3,35.5 31.4,35.4C31.6,35.2 31.5,34.9 31.4,34.7C31.6,34.8 31.4,34.8 31.3,34.9Z" style="fill-rule:nonzero;"/>
        <path id="XMLID_941_" d="M27.5,22.4C27.5,22.4 27.6,22.4 27.6,22.3C27.4,21.5 26.7,20.7 25.8,20.8C24.8,20.9 23.6,21.2 22.9,21.9C22.9,21.9 22.9,22 23,22C23.8,21.4 24.5,21.2 25.5,21.1C26.5,20.9 26.9,21.7 27.5,22.4Z" style="fill-rule:nonzero;"/>
        <path id="XMLID_942_" d="M26.5,23.1C26.3,23 26.1,23 25.9,23C26,22.9 26,22.8 26.1,22.7C26.1,22.6 26.1,22.6 26.2,22.5L26.2,22.3C26.6,22.5 26.9,22.8 27.2,23.1C27.3,23.2 27.5,23.1 27.4,22.9C26.9,22.1 26.2,21.5 25.2,21.5C24.2,21.5 23.3,22 22.8,22.9C22.8,22.9 22.9,23 23,23C23.5,22.8 23.9,22.4 24.4,22.2C24.3,22.5 24.5,22.9 24.7,23.1C24.4,23.2 24.1,23.2 23.8,23.3L23.8,23.4C24.6,23.5 25.7,23.7 26.4,23.3C26.6,23.2 26.5,23.1 26.5,23.1Z" style="fill-rule:nonzero;"/>
        <path id="XMLID_943_" d="M35.1,21.4C34.1,21.4 33.4,22 32.9,22.8C32.8,23 33,23.2 33.2,23C33.5,22.7 33.9,22.4 34.2,22.2L34.2,22.4C34.2,22.6 34.3,22.9 34.5,23C34.3,23 34.1,23 33.9,23.1C33.8,23.1 33.8,23.2 33.9,23.3C34.6,23.7 35.7,23.5 36.5,23.4L36.5,23.3C36.2,23.3 35.9,23.2 35.6,23.1C35.7,23 35.7,23 35.8,22.9C35.9,22.8 35.9,22.7 35.9,22.6L35.9,22.2C36.4,22.4 36.8,22.7 37.3,23C37.4,23.1 37.5,22.9 37.5,22.8C37,22 36.1,21.4 35.1,21.4Z" style="fill-rule:nonzero;"/>
        <path id="XMLID_944_" d="M35.9,21.1C36.7,21.3 36.8,21.5 37.3,22C37.4,22 37.4,22 37.4,21.9C36.7,21.1 36.1,20.8 35.1,20.8C34.1,20.7 33.2,21.4 32.8,22.3C32.8,22.4 32.9,22.4 32.9,22.4C33.7,21.8 34.2,21 35.3,21.1L35.9,21.1Z" style="fill-rule:nonzero;"/>
        <path id="XMLID_946_" d="M33,20.5C33.1,20.5 33.1,20.6 33.2,20.6C33.3,20.6 33.4,20.6 33.4,20.5C33.5,20.5 33.6,20.4 33.4,20.5C33.5,20.5 33.5,20.4 33.6,20.4L33.7,20.4C33.8,20.4 33.9,20.4 34,20.3C34.8,20.2 35.6,20.3 36.5,20.5C37.4,20.7 38.2,21.2 39.1,21.3C39.2,21.3 39.3,21.1 39.3,21C39.2,20.8 39.1,20.9 38.9,20.7C39,19.8 37,19.3 35.7,19.1C35.5,19.1 35.2,19 35,19L34.7,19C34.6,19 34.5,19 34.4,19.1L34.2,19.1C34,19 34,19 33.9,19C33.7,18.9 33.5,18.9 33.4,19.1L33.3,19.2C33.1,19.3 33,19.5 33,19.7C33,19.5 32.9,19.4 32.8,19.2C32.8,19.1 32.7,19.2 32.7,19.2C32.6,19.6 32.6,19.7 32.5,20.1C32.5,20.5 32.8,20.7 33,20.5Z" style="fill-rule:nonzero;"/>
        <path id="XMLID_947_" d="M21.3,21.2C22.2,21.1 23,20.6 23.9,20.4C24.7,20.2 25.5,20.2 26.4,20.2C26.5,20.3 26.6,20.3 26.7,20.3L26.8,20.3C26.8,20.3 26.9,20.4 27,20.4C26.9,20.4 26.8,20.4 27,20.4C27.1,20.4 27.2,20.5 27.2,20.5C27.3,20.5 27.3,20.5 27.4,20.4C27.6,20.5 28,20.4 27.9,20.1C27.8,19.7 27.8,19.5 27.7,19.2C27.7,19.1 27.6,19.1 27.6,19.2C27.5,19.4 27.5,19.5 27.4,19.7C27.4,19.5 27.3,19.3 27.1,19.2L27,19.1C26.9,19 26.7,18.9 26.5,19C26.4,19 26.4,18.9 26.3,18.9L26.1,18.9C26,18.9 25.9,18.8 25.8,18.8L25.5,18.8C25.2,18.8 25,18.9 24.7,18.9C23.4,19.1 21.5,19.7 21.6,20.5C21.4,20.7 21.3,20.6 21.2,20.8C21.1,21 21.1,21.2 21.3,21.2Z" style="fill-rule:nonzero;"/>
        <path id="XMLID_948_" d="M28.9,32.2L29,32.3C29.3,32.2 29.3,32 29.5,31.7C29.6,31.4 29.8,31.2 29.8,30.9C29.8,30.9 29.8,30.8 29.7,30.9C29.4,31 29.3,31.2 29.2,31.5C29.1,31.7 28.8,31.9 28.9,32.2Z" style="fill-rule:nonzero;"/>
        <path id="XMLID_949_" d="M28.7,30.7C28.3,31.1 28,31.7 27.9,32.3C27.9,32.4 28,32.4 28,32.4C28.1,32.3 28.2,32.2 28.3,32.1C28.3,32.2 28.2,32.3 28.3,32.4C28.3,32.5 28.4,32.5 28.4,32.5C28.7,32.4 28.9,32.1 29,31.8C29.2,31.5 29.4,31.1 29.4,30.7C29.4,30.6 29.3,30.5 29.2,30.6C29,30.9 28.8,31.2 28.6,31.5C28.7,31.3 28.8,31 28.8,30.8C28.9,30.6 28.8,30.6 28.7,30.7Z" style="fill-rule:nonzero;"/>
        <path id="XMLID_950_" d="M28.2,30.7C27.8,31.1 27.2,31.8 27.2,32.4C27.2,32.4 27.2,32.5 27.3,32.4C27.6,32.2 27.7,31.9 27.8,31.7C28,31.4 28.2,31.1 28.2,30.7C28.3,30.7 28.3,30.6 28.2,30.7Z" style="fill-rule:nonzero;"/>
        <path id="XMLID_951_" d="M26.7,32.4C26.7,32.5 26.8,32.5 26.8,32.5C27.2,32.3 27.5,31.7 27.4,31.3C27,31.3 26.7,31.9 26.7,32.4Z" style="fill-rule:nonzero;"/>
        <path id="XMLID_953_" d="M26.7,31.4C26.3,31.5 26,32.2 26,32.5L26.1,32.6C26.4,32.4 26.8,31.8 26.7,31.4Z" style="fill-rule:nonzero;"/>
        <path id="XMLID_954_" d="M25.9,31.6C25.6,31.8 25.5,32.3 25.5,32.6C25.5,32.6 25.5,32.7 25.6,32.6C25.8,32.4 26.1,32 25.9,31.6Z" style="fill-rule:nonzero;"/>
        <path id="XMLID_955_" d="M25.4,31.9C25.2,31.6 25,32.5 25,32.6C25,32.7 25.1,32.7 25.2,32.7C25.3,32.5 25.4,32.4 25.4,32.2L25.4,31.9Z" style="fill-rule:nonzero;"/>
        <path id="XMLID_956_" d="M30.6,30.8C30.5,31.1 30.7,31.4 30.8,31.7C30.9,32 31,32.1 31.3,32.3C31.4,32.3 31.4,32.3 31.4,32.2C31.4,31.9 31.3,31.7 31.1,31.5C31,31.2 30.9,31 30.6,30.8Z" style="fill-rule:nonzero;"/>
        <path id="XMLID_957_" d="M30.9,30.6C31,31 31.2,31.3 31.3,31.7C31.4,32 31.6,32.3 31.9,32.4C32,32.4 32,32.4 32,32.3C32.1,32 31.9,31.8 31.7,31.5C31.5,31.2 31.3,30.8 31,30.5L30.9,30.6Z" style="fill-rule:nonzero;"/>
        <path id="XMLID_958_" d="M31.6,30.5C31.7,31.1 31.9,31.9 32.3,32.3C32.4,32.3 32.4,32.3 32.4,32.2C32.3,31.6 32.1,30.9 31.7,30.4C31.7,30.4 31.6,30.4 31.6,30.5Z" style="fill-rule:nonzero;"/>
        <path id="XMLID_960_" d="M32.2,30.6C32.2,30.5 32.1,30.6 32.2,30.6C32.2,31 32.4,31.4 32.6,31.8C32.7,32.1 32.8,32.3 33,32.5L33.1,32.5C33.2,32.2 33,31.9 32.9,31.6C32.7,31.2 32.5,30.8 32.2,30.6Z" style="fill-rule:nonzero;"/>
        <path id="XMLID_961_" d="M33.5,32.4C33.5,32.4 33.6,32.4 33.6,32.3C33.6,31.9 33.2,31.3 32.8,31.1C32.8,31.6 33.2,32.2 33.5,32.4Z" style="fill-rule:nonzero;"/>
        <path id="XMLID_962_" d="M33.6,31.2C33.5,31.2 33.5,31.2 33.6,31.2C33.5,31.6 33.9,32.2 34.2,32.4C34.2,32.4 34.3,32.4 34.3,32.3C34.3,32 33.9,31.4 33.6,31.2Z" style="fill-rule:nonzero;"/>
        <path id="XMLID_963_" d="M34.3,31.4C34.2,31.9 34.5,32.3 34.8,32.7L34.9,32.7C34.8,32.2 34.7,31.7 34.3,31.4C34.4,31.3 34.3,31.4 34.3,31.4Z" style="fill-rule:nonzero;"/>
        <path id="XMLID_964_" d="M34.9,31.8C34.8,32.1 34.9,32.4 35.1,32.6C35.2,32.7 35.3,32.7 35.3,32.5C35.2,32.2 35.2,32 34.9,31.8C34.9,31.7 34.9,31.7 34.9,31.8Z" style="fill-rule:nonzero;"/>
    </g>
</svg>
