<?xml version="1.0" standalone="no"?>
<!DOCTYPE svg PUBLIC "-//W3C//DTD SVG 20010904//EN"
 "http://www.w3.org/TR/2001/REC-SVG-20010904/DTD/svg10.dtd">
<svg version="1.0" xmlns="http://www.w3.org/2000/svg"
 width="260.000000pt" height="260.000000pt" viewBox="0 0 260.000000 260.000000"
 preserveAspectRatio="xMidYMid meet">
<metadata>
Created by potrace 1.11, written by Peter Selinger 2001-2013
</metadata>
<g transform="translate(0.000000,260.000000) scale(0.100000,-0.100000)"
fill="#000000" stroke="none">
<path d="M1150 2593 c-14 -2 -61 -11 -105 -20 -536 -105 -953 -545 -1032
-1088 -10 -66 -10 -284 -1 -360 4 -33 15 -87 23 -120 8 -33 18 -70 21 -83 12
-55 80 -209 126 -285 207 -340 530 -558 930 -625 84 -14 348 -7 438 12 268 57
491 177 672 362 200 205 316 435 363 719 13 79 14 328 1 390 -7 32 -39 177
-41 185 -1 3 -5 14 -9 25 -4 11 -13 34 -18 50 -27 77 -114 238 -168 310 -212
284 -505 463 -853 522 -39 6 -313 11 -347 6z m318 -399 c206 -48 358 -170 424
-339 21 -53 35 -136 29 -173 0 -5 -53 -9 -116 -9 l-115 1 -1 25 c-2 82 -42
174 -96 221 -82 72 -181 101 -328 96 -210 -8 -336 -116 -331 -286 4 -156 107
-234 447 -335 371 -110 536 -264 545 -510 5 -142 -31 -238 -123 -330 -237
-235 -777 -221 -1022 26 -81 83 -126 174 -137 281 l-6 63 110 0 c61 0 114 -4
118 -8 4 -4 9 -24 11 -45 10 -92 85 -195 175 -240 175 -85 435 -70 555 33 111
95 113 291 5 387 -51 44 -174 99 -329 147 -229 70 -356 130 -449 214 -150 136
-183 363 -78 544 65 112 244 221 404 246 64 10 250 4 308 -9z"/>
</g>
</svg>
